<svg xmlns="http://www.w3.org/2000/svg" viewBox="0 0 100 100" preserveAspectRatio="xMidYMid" width="80" height="80" style="shape-rendering: auto; display: block; background: transparent;" xmlns:xlink="http://www.w3.org/1999/xlink"><g><g transform="rotate(0 50 50)">
  <rect fill="#00a0ff" height="12" width="6" ry="6" rx="3" y="29" x="47">
    <animate repeatCount="indefinite" begin="-0.6193693693693695s" dur="0.6756756756756757s" keyTimes="0;1" values="1;0" attributeName="opacity"></animate>
  </rect>
</g><g transform="rotate(30 50 50)">
  <rect fill="#00a0ff" height="12" width="6" ry="6" rx="3" y="29" x="47">
    <animate repeatCount="indefinite" begin="-0.5630630630630631s" dur="0.6756756756756757s" keyTimes="0;1" values="1;0" attributeName="opacity"></animate>
  </rect>
</g><g transform="rotate(60 50 50)">
  <rect fill="#00a0ff" height="12" width="6" ry="6" rx="3" y="29" x="47">
    <animate repeatCount="indefinite" begin="-0.5067567567567568s" dur="0.6756756756756757s" keyTimes="0;1" values="1;0" attributeName="opacity"></animate>
  </rect>
</g><g transform="rotate(90 50 50)">
  <rect fill="#00a0ff" height="12" width="6" ry="6" rx="3" y="29" x="47">
    <animate repeatCount="indefinite" begin="-0.4504504504504505s" dur="0.6756756756756757s" keyTimes="0;1" values="1;0" attributeName="opacity"></animate>
  </rect>
</g><g transform="rotate(120 50 50)">
  <rect fill="#00a0ff" height="12" width="6" ry="6" rx="3" y="29" x="47">
    <animate repeatCount="indefinite" begin="-0.39414414414414417s" dur="0.6756756756756757s" keyTimes="0;1" values="1;0" attributeName="opacity"></animate>
  </rect>
</g><g transform="rotate(150 50 50)">
  <rect fill="#00a0ff" height="12" width="6" ry="6" rx="3" y="29" x="47">
    <animate repeatCount="indefinite" begin="-0.3378378378378379s" dur="0.6756756756756757s" keyTimes="0;1" values="1;0" attributeName="opacity"></animate>
  </rect>
</g><g transform="rotate(180 50 50)">
  <rect fill="#00a0ff" height="12" width="6" ry="6" rx="3" y="29" x="47">
    <animate repeatCount="indefinite" begin="-0.28153153153153154s" dur="0.6756756756756757s" keyTimes="0;1" values="1;0" attributeName="opacity"></animate>
  </rect>
</g><g transform="rotate(210 50 50)">
  <rect fill="#00a0ff" height="12" width="6" ry="6" rx="3" y="29" x="47">
    <animate repeatCount="indefinite" begin="-0.22522522522522526s" dur="0.6756756756756757s" keyTimes="0;1" values="1;0" attributeName="opacity"></animate>
  </rect>
</g><g transform="rotate(240 50 50)">
  <rect fill="#00a0ff" height="12" width="6" ry="6" rx="3" y="29" x="47">
    <animate repeatCount="indefinite" begin="-0.16891891891891894s" dur="0.6756756756756757s" keyTimes="0;1" values="1;0" attributeName="opacity"></animate>
  </rect>
</g><g transform="rotate(270 50 50)">
  <rect fill="#00a0ff" height="12" width="6" ry="6" rx="3" y="29" x="47">
    <animate repeatCount="indefinite" begin="-0.11261261261261263s" dur="0.6756756756756757s" keyTimes="0;1" values="1;0" attributeName="opacity"></animate>
  </rect>
</g><g transform="rotate(300 50 50)">
  <rect fill="#00a0ff" height="12" width="6" ry="6" rx="3" y="29" x="47">
    <animate repeatCount="indefinite" begin="-0.056306306306306314s" dur="0.6756756756756757s" keyTimes="0;1" values="1;0" attributeName="opacity"></animate>
  </rect>
</g><g transform="rotate(330 50 50)">
  <rect fill="#00a0ff" height="12" width="6" ry="6" rx="3" y="29" x="47">
    <animate repeatCount="indefinite" begin="0s" dur="0.6756756756756757s" keyTimes="0;1" values="1;0" attributeName="opacity"></animate>
  </rect>
</g><g></g></g><!-- [ldio] generated by https://loading.io --></svg>